<svg width="780" height="72" viewBox="0 0 780 72" fill="none" xmlns="http://www.w3.org/2000/svg">
<path d="M774.268 22.1844L779.561 19.8595C779.69 19.7304 779.69 19.6012 779.561 19.6012L774.268 17.2765L771.815 11.852C771.815 11.7228 771.686 11.7228 771.686 11.852L769.233 17.1473L763.939 19.6012C763.809 19.6012 763.809 19.7304 763.939 19.8595L769.233 22.1844L771.686 27.4798H771.815L774.268 22.1844Z" fill="#6ADBC6"/>
<path opacity="0.5" d="M445.929 9.40408L450.924 7.2V6.90612L445.929 4.84898L443.726 0H443.432L441.229 4.84898L436.381 6.90612C436.234 7.05306 436.234 7.2 436.381 7.2L441.229 9.40408L443.432 14.4H443.726L445.929 9.40408Z" fill="#9691FF"/>
<path d="M743.093 64.4505L750.548 61.1805C750.595 61.1276 750.621 61.0591 750.621 60.9882C750.621 60.9172 750.595 60.8487 750.548 60.7958L743.093 57.5258L739.748 50.0243C739.729 50.0039 739.707 49.9874 739.684 49.9763C739.659 49.9651 739.631 49.9592 739.605 49.9592C739.578 49.9592 739.55 49.9651 739.525 49.9763C739.502 49.9874 739.48 50.0039 739.461 50.0243L736.116 57.4297L728.661 60.7958C728.614 60.8487 728.588 60.9172 728.588 60.9882C728.588 61.0591 728.614 61.1276 728.661 61.1805L736.116 64.4505L739.461 71.8557C739.588 72.0481 739.684 72.0481 739.748 71.8557L743.093 64.4505Z" fill="#628BF7"/>
<path d="M22.4399 50.1797L33.7506 45.1838C33.8285 45.1838 33.9033 45.1528 33.9584 45.0977C34.0134 45.0426 34.0444 44.9678 34.0444 44.8899C34.0444 44.812 34.0134 44.7372 33.9584 44.6821C33.9033 44.627 33.8285 44.596 33.7506 44.596L22.4399 39.6001C22.401 39.6001 22.3635 39.5847 22.3361 39.557C22.3084 39.5296 22.293 39.4921 22.293 39.4532L17.1518 28.1389C17.1518 27.845 16.858 27.845 16.7111 28.1389L11.7167 39.4532H11.5698L0.112216 44.596C0.0399513 44.6768 0 44.7814 0 44.8899C0 44.9983 0.0399513 45.1029 0.112216 45.1838L11.5698 50.1797H11.7167L16.7111 61.6409C16.858 61.9348 17.1518 61.9348 17.1518 61.6409L22.293 50.3266C22.293 50.2877 22.3084 50.2502 22.3361 50.2227C22.3635 50.1951 22.401 50.1797 22.4399 50.1797Z" fill="#FF7ABC"/>
</svg>
