<svg xmlns="http://www.w3.org/2000/svg" viewBox="0 0 960 13.71" fill="#FCF2D4"><title>Fichier 11</title><g id="Calque_2" data-name="Calque 2"><g id="Calque_2-2" data-name="Calque 2"><path class="cls-1" d="M960,4v9.71H0V4A202.12,202.12,0,0,1,80,4a202.12,202.12,0,0,0,80,0,202.12,202.12,0,0,1,80,0,202.12,202.12,0,0,0,80,0,202.12,202.12,0,0,1,80,0,202.12,202.12,0,0,0,80,0,202.12,202.12,0,0,1,80,0,202.12,202.12,0,0,0,80,0,202.12,202.12,0,0,1,80,0,202.12,202.12,0,0,0,80,0,202.12,202.12,0,0,1,80,0A202.12,202.12,0,0,0,960,4Z"/></g></g></svg>